<?xml version="1.0" standalone="no"?>
<!DOCTYPE svg PUBLIC "-//W3C//DTD SVG 20010904//EN"
 "http://www.w3.org/TR/2001/REC-SVG-20010904/DTD/svg10.dtd">
<svg version="1.0" xmlns="http://www.w3.org/2000/svg"
 width="377.000000pt" height="377.000000pt" viewBox="0 0 377.000000 377.000000"
 preserveAspectRatio="xMidYMid meet">

<g transform="translate(0.000000,377.000000) scale(0.100000,-0.100000)"
fill="#000000" stroke="none">
<path d="M1740 3670 c-184 -33 -307 -79 -316 -117 -4 -16 -1 -30 9 -40 14 -14
22 -13 84 7 177 57 215 63 418 63 174 0 238 -5 280 -22 11 -5 40 -14 65 -21
92 -25 215 -79 258 -113 6 -5 12 -25 12 -44 0 -67 57 -110 127 -97 36 7 93 72
93 108 0 11 -21 39 -46 64 -43 40 -50 44 -84 38 -33 -5 -54 2 -157 54 -117 59
-222 93 -393 126 -97 18 -231 16 -350 -6z"/>
<path d="M923 3301 c-78 -57 -167 -164 -212 -257 -58 -120 -59 -120 -82 -219
-72 -301 -16 -614 154 -863 16 -24 76 -93 134 -155 111 -117 153 -174 153
-206 0 -11 5 -23 10 -26 13 -8 13 -212 0 -220 -6 -3 -10 -18 -10 -32 0 -15 -4
-40 -9 -57 -5 -17 -14 -47 -20 -66 -20 -71 -39 -114 -52 -118 -26 -8 -69 -55
-79 -88 -9 -26 -8 -39 5 -64 17 -33 68 -70 97 -70 32 0 83 31 101 62 22 38 22
68 0 106 -18 32 -19 27 17 147 56 186 70 299 49 379 -25 98 -34 117 -70 165
-22 28 -39 57 -39 64 0 7 51 65 114 128 163 164 181 179 220 179 38 0 90 45
101 87 12 50 -59 133 -115 133 -62 0 -117 -72 -105 -139 6 -35 4 -39 -59 -96
-35 -33 -81 -73 -100 -88 -20 -16 -36 -34 -36 -41 0 -7 -18 -29 -39 -50 -28
-28 -44 -36 -57 -31 -32 11 -116 115 -111 136 3 12 -1 19 -15 21 -24 4 -65 77
-106 189 -49 136 -57 188 -56 374 1 142 4 183 23 250 12 44 26 90 33 102 10
21 87 58 173 84 22 6 48 15 57 20 10 5 28 9 41 9 13 0 27 4 33 9 5 5 36 12 69
14 33 3 75 8 93 12 28 7 37 3 77 -34 50 -46 75 -50 125 -20 48 30 59 48 60 95
0 32 -6 46 -32 71 -54 52 -98 52 -153 2 -13 -12 -43 -20 -90 -24 -82 -8 -240
-39 -308 -61 -27 -9 -51 -13 -54 -10 -3 3 31 42 76 86 87 85 99 114 54 131
-16 6 -31 1 -60 -20z"/>
<path d="M2280 3231 c-71 -23 -128 -62 -255 -176 -99 -89 -179 -172 -215 -224
l-24 -34 30 -23 29 -24 333 0 c322 0 332 -1 332 -19 0 -11 4 -22 9 -25 5 -3
11 -20 14 -38 17 -105 30 -132 71 -157 17 -10 89 -55 160 -100 71 -45 135 -80
141 -77 7 2 25 25 41 50 16 25 36 45 46 46 11 0 15 6 11 20 -3 13 5 37 23 63
22 32 29 54 29 90 0 43 -4 52 -34 79 -29 26 -32 33 -23 49 16 24 15 130 0 166
-27 63 -101 165 -136 188 -53 35 -199 92 -306 120 -101 25 -237 39 -276 26z"/>
<path d="M1574 2741 c-27 -12 -72 -66 -80 -96 -7 -30 18 -78 55 -104 35 -25
50 -26 97 -6 32 13 37 13 77 -9 71 -39 149 -82 222 -121 39 -21 75 -41 80 -45
6 -4 62 -35 125 -68 63 -33 139 -74 168 -91 29 -17 55 -31 57 -31 2 0 41 -21
87 -48 46 -26 105 -59 132 -72 26 -14 50 -30 53 -36 6 -16 -45 -124 -60 -124
-7 0 -73 18 -147 39 -371 107 -825 195 -910 176 -19 -4 -32 -14 -35 -28 -9
-36 3 -835 14 -927 13 -113 25 -182 34 -197 4 -7 8 -46 8 -88 0 -64 4 -78 20
-88 25 -16 25 -59 -1 -82 -42 -38 -14 -127 51 -160 25 -13 33 -13 62 -2 45 19
87 71 87 108 0 22 -12 42 -47 77 -48 47 -72 101 -73 164 0 15 -4 29 -9 32 -5
3 -11 29 -15 58 -3 29 -11 82 -16 118 -27 171 -51 730 -31 730 7 0 56 -25 109
-57 162 -94 257 -142 341 -173 45 -16 93 -35 108 -42 30 -14 42 -53 24 -71 -6
-6 -11 -26 -11 -43 0 -18 -4 -35 -9 -38 -9 -6 -16 -44 -27 -136 -3 -25 -9 -54
-14 -65 -12 -26 -20 -117 -26 -293 -3 -78 -9 -142 -14 -142 -5 0 -23 -20 -40
-45 l-30 -44 21 -47 c37 -77 92 -88 180 -35 36 21 36 22 28 66 -10 55 -23 79
-50 99 -19 13 -21 21 -16 98 11 159 32 332 56 465 13 71 44 173 52 173 4 0 48
-27 98 -60 50 -33 114 -71 141 -85 60 -31 56 -32 212 82 59 43 129 94 156 113
55 40 104 100 135 168 18 38 22 66 22 147 0 55 -5 123 -12 150 -10 44 -9 54 8
81 29 48 25 87 -15 128 -38 41 -84 48 -126 19 -39 -27 -49 -45 -50 -86 0 -46
21 -80 66 -108 29 -17 34 -26 34 -58 0 -20 5 -42 11 -48 17 -17 -2 -206 -23
-219 -5 -3 -35 12 -66 34 -31 22 -85 53 -119 71 l-62 31 24 42 c38 69 57 135
46 157 -9 16 -542 317 -915 517 -94 50 -111 63 -118 89 -15 60 -87 105 -134
86z"/>
<path d="M2378 1173 c-52 -56 -60 -93 -28 -133 21 -27 27 -89 9 -107 -13 -13
-6 -205 10 -278 5 -27 13 -65 17 -83 3 -18 10 -35 15 -38 5 -3 9 -11 9 -19 0
-7 19 -44 42 -81 23 -38 41 -77 40 -86 0 -11 6 -18 17 -18 27 0 46 -42 31 -70
-25 -46 46 -130 111 -130 59 0 119 83 98 137 -18 48 -49 73 -90 73 -40 0 -53
11 -63 51 -3 15 -15 29 -25 32 -26 6 -54 53 -90 147 -33 86 -47 217 -36 330 7
68 8 71 49 98 66 44 75 120 20 175 -38 38 -100 38 -136 0z"/>
</g>
</svg>
